<svg xmlns="http://www.w3.org/2000/svg" aria-hidden="true" viewBox="0 0 410 404" width="32" height="32"><path d="M399.641 59.525l-183.998 329.02c-3.799 6.793-13.559 6.833-17.415.073L10.582 59.556C6.38 52.19 12.68 43.266 21.028 44.76l184.195 32.923c1.175.21 2.378.207 3.55-.005L389.04 44.762c8.312-1.5 14.62 7.365 10.6 14.763z" fill="#41D1FF"/><path d="M292.965 1.574L156.801 28.255a4.057 4.057 0 00-3.264 3.741l-8.378 141.39a4.06 4.06 0 004.98 4.205l37.913-8.751a4.06 4.06 0 014.877 4.788l-11.261 55.155a4.06 4.06 0 005.158 4.74l23.42-7.114a4.06 4.06 0 015.16 4.746l-17.908 86.682c-1.42 6.875 7.71 10.616 11.522 4.724l2.547-3.927 111.029-221.5a4.06 4.06 0 00-4.51-5.83l-39.014 7.525a4.06 4.06 0 01-4.77-5.122l25.45-88.244a4.06 4.06 0 00-4.864-5.09z" fill="#FFEA83"/></svg>
